@startuml

    !include ../lexakai/lexakai.theme
    
    title "com.telenav.aonia.map.data.formats.pbf.processing.filters.osmteam"
    
    WayFilter <|-- OsmTeamDataPipelineWayFilter
    class OsmTeamDataPipelineWayFilter
    {
        --(constructors)--
        +OsmTeamDataPipelineWayFilter()
    }
    
    WayFilter <|-- OsmTeamWayFilter
    class OsmTeamWayFilter
    {
        --(constructors)--
        +OsmTeamWayFilter()
    }
    
@enduml

