@startuml

    !include ../lexakai/lexakai.theme
    
    title "diagram-pbf-osm"
    
    interface PbfTagFilter
    
    class Osm
    {
        --(checks)--
        +boolean isNavigable(PbfWay)
    }
    
    WayFilter <|-- OsmExcludeNonDrivableWaysFilter
    class OsmExcludeNonDrivableWaysFilter
    {
        --(constructors)--
        +OsmExcludeNonDrivableWaysFilter()
    }
    
    class OsmHighwayTag
    {
        --(checks)--
        +boolean isNavigableHighway(Tag)
        +boolean isNullServiceWay(Tag)
        +boolean isPrivateAccess(Tag)
        +boolean isServiceWay(Tag)
    }
    
    PbfTagFilter <|-- OsmIgnoredTags
    class OsmIgnoredTags
    {
        --(constructors)--
        +OsmIgnoredTags()
    }
    
    WayFilter <|-- OsmMajorRoadsWayFilter
    class OsmMajorRoadsWayFilter
    {
        --(constructors)--
        +OsmMajorRoadsWayFilter()
    }
    
    WayFilter <|-- OsmNavigableWayFilter
    class OsmNavigableWayFilter
    {
        --(constructors)--
        +OsmNavigableWayFilter()
    }
    
    class OsmRelationTag
    {
    }
    
    RelationFilter <|-- OsmRelationsFilter
    class OsmRelationsFilter
    {
        --(constructors)--
        +OsmRelationsFilter()
    }
    
    WayFilter <|-- OsmTeamDataPipelineWayFilter
    class OsmTeamDataPipelineWayFilter
    {
        --(constructors)--
        +OsmTeamDataPipelineWayFilter()
    }
    
    WayFilter <|-- OsmTeamWayFilter
    class OsmTeamWayFilter
    {
        --(constructors)--
        +OsmTeamWayFilter()
    }
    
    WayFilter <|-- OsmWaysFilter
    class OsmWaysFilter
    {
        --(constructors)--
        +OsmWaysFilter()
    }
    
@enduml

