@startuml

    !include ../lexakai/lexakai.theme
    
    title "diagram-pbf-processing"
    
    abstract BaseRepeater
    abstract BasePbfReader
    
    interface PbfDataSource
    
    enum PbfDataProcessor.Action
    {
        ACCEPTED
        DISCARDED
        FILTERED_OUT
    }
    
    BaseRepeater <|-- BasePbfReader
    PbfDataSource <|-- BasePbfReader
    BasePbfReader o-- Resource
    BasePbfReader o-- PbfDataStatistics
    BasePbfReader o-- PbfDataProcessor
    abstract class BasePbfReader
    {
        --(constructors)--
        #BasePbfReader(Resource)
        --
        +PbfDataStatistics dataStatistics()
        +void process(Entity)
        +void processBounds(Bound)
        --(lifecycle)--
        +void end()
        +void start(PbfDataProcessor)
        --(math)--
        +Identifier maximumNodeIdentifier()
        +Identifier maximumRelationIdentifier()
        +Identifier maximumWayIdentifier()
        --(metadata)--
        +void processMetadata(Map<String,Object> metadata)
        --(read)--
        +BasePbfReader noProgress()
    }
    
    BaseRepeater <|-- ParallelPbfReader
    PbfDataSource <|-- ParallelPbfReader
    class ParallelPbfReader
    {
        --(constructors)--
        +ParallelPbfReader(Resource, Count)
        --
        +void nodes(Count nodes)
        +void relations(Count relations)
        +void ways(Count ways)
    }
    
    PbfDataProcessor --> PbfDataProcessor.Action : "guided by"
    interface PbfDataProcessor
    {
        --
        +void onBounds(Bound bounds)
        +void onEntity(PbfEntity<?>)
        +Action onNode(PbfNode)
        +void onNodes(Collection<PbfNode> nodes)
        +Action onRelation(PbfRelation)
        +void onRelations(Collection<PbfRelation> relations)
        +Action onWay(PbfWay)
        +void onWays(Collection<PbfWay> ways)
        --(lifecycle)--
        +void onEndNodes()
        +void onEndRelations()
        +void onEndWays()
        +void onStartNodes()
        +void onStartRelations()
        +void onStartWays()
        --(metadata)--
        +void onMetadata(Map<String,String> metadata)
    }
    
    interface Broadcaster
    Broadcaster <|-- PbfDataSource
    PbfDataSource --> PbfDataProcessor : "calls"
    PbfDataSource --> PbfDataStatistics : "collects"
    interface PbfDataSource
    {
        --
        +void expectedNodes(Count nodes)
        +void expectedRelations(Count relations)
        +void expectedWays(Count ways)
        +void phase(String phase)
        +PbfDataStatistics process(PbfDataProcessor)
        --(collection)--
        +Map<String,String> metadata()
        +Count nodes()
        +Count relations()
        +Count ways()
        --(extension points)--
        +PbfDataStatistics onProcess(PbfDataProcessor)
        --(lifecycle)--
        +void onEnd()
        +void onStart()
    }
    
    class PbfDataStatistics
    {
        --(constructors)--
        +PbfDataStatistics(Resource)
        --(checks)--
        +boolean isValid()
        --(collection)--
        +Bytes dataSize()
        +Count nodes()
        +Count relations()
        +Count ways()
        --(math)--
        +void incrementNodes()
        +void incrementRelations()
        +void incrementWays()
    }
    
    RuntimeException <|-- PbfStopProcessingException
    class PbfStopProcessingException
    {
    }
    
    PbfWriter o-- WritableResource
    PbfWriter o-- PbfWriter.Phase
    class PbfWriter
    {
        --(constructors)--
        +PbfWriter(WritableResource, boolean)
        --
        +WritableResource resource()
        --(io)--
        +void close()
        --(write)--
        +void write(PbfWay)
        +void write(PbfNode)
        +void write(PbfRelation)
        +void write(Bound)
        +void writeNodes(List<PbfNode> nodes)
        +void writeRelations(Collection<PbfRelation> relations)
        +void writeWays(List<PbfWay> ways)
    }
    
    enum PbfWriter.Phase
    {
        NODES
        RELATIONS
        WAYS
    }
    
    BasePbfReader <|-- SerialPbfReader
    class SerialPbfReader
    {
        --(constructors)--
        +SerialPbfReader(Resource)
    }
    
@enduml

